<svg
  width="32"
  height="32"
  viewBox="0 0 32 32"
  fill="none"
  xmlns="http://www.w3.org/2000/svg"
>
  <g clipPath="url(#clip0_340_268)">
    <path
      d="M24.7273 0H7.27273C3.25611 0 0 3.25611 0 7.27273V24.7273C0 28.7439 3.25611 32 7.27273 32H24.7273C28.7439 32 32 28.7439 32 24.7273V7.27273C32 3.25611 28.7439 0 24.7273 0Z"
      fill="black"
    />
    <path
      d="M14.5475 25.0289L12.9627 24.1376C12.1131 24.6163 12.448 25.9243 13.4201 25.9243H14.0859C14.2452 25.9243 14.4045 25.883 14.5434 25.8046C14.8416 25.6355 14.8416 25.2022 14.5434 25.033L14.5475 25.0289Z"
      fill="white"
    />
    <path
      d="M13.1342 11.1475C13.5712 11.6179 14.3065 11.6179 14.7435 11.1475C15.1438 10.7184 15.1438 10.0458 14.7435 9.61661L12.8891 7.62359C12.6808 7.40075 12.3908 7.27283 12.0844 7.27283C11.1164 7.27283 10.614 8.44061 11.2798 9.1545L13.1342 11.1475Z"
      fill="white"
    />
    <path
      d="M18.6934 13.8585C18.2563 13.3881 17.517 13.3881 17.0799 13.8585C16.6796 14.2877 16.6796 14.9603 17.0799 15.3894L21.0012 19.6025L18.3217 21.1127C17.566 21.5377 17.566 22.6395 18.3217 23.0645C18.6566 23.2543 19.0651 23.2543 19.4 23.0645L24.5548 20.1596L18.6893 13.8585H18.6934Z"
      fill="white"
    />
    <path
      d="M18.3216 23.8281L18.1867 23.7497L15.9157 22.4706L10.8222 19.6027L15.9157 14.1352L17.4311 12.5052L20.5477 9.15877C21.2134 8.44488 20.711 7.2771 19.743 7.2771C19.4366 7.2771 19.1467 7.40503 18.9383 7.62786L15.9157 10.8754L14.3963 12.5052L7.27271 20.1597L13.6488 23.7538L15.9198 25.033L17.2473 25.784C17.4107 25.8789 17.5986 25.9243 17.7865 25.9243C18.9261 25.9243 19.3223 24.3935 18.3257 23.8322L18.3216 23.8281Z"
      fill="white"
    />
  </g>
  <defs>
    <clipPath id="clip0_340_268">
      <rect width="32" height="32" fill="white" />
    </clipPath>
  </defs>
</svg>
